<?xml version="1.0" standalone="no"?>
<!DOCTYPE svg PUBLIC "-//W3C//DTD SVG 20010904//EN"
 "http://www.w3.org/TR/2001/REC-SVG-20010904/DTD/svg10.dtd">
<svg version="1.0" xmlns="http://www.w3.org/2000/svg"
 width="582.000000pt" height="582.000000pt" viewBox="0 0 582.000000 582.000000"
 preserveAspectRatio="xMidYMid meet">
<metadata>
Created by potrace 1.14, written by Peter Selinger 2001-2017
</metadata>
<g transform="translate(0.000000,582.000000) scale(0.100000,-0.100000)"
fill="#000000" stroke="none">
<path d="M0 2910 l0 -2910 2910 0 2910 0 0 2910 0 2910 -2910 0 -2910 0 0
-2910z m2870 2318 c0 -6 9 -8 20 -5 11 3 20 1 20 -5 0 -6 7 -8 15 -4 8 3 15 1
15 -5 0 -6 7 -9 15 -5 8 3 15 1 15 -4 0 -5 10 -14 21 -21 17 -9 20 -8 14 3 -4
7 5 -1 21 -18 16 -16 23 -22 15 -12 -27 35 -5 17 44 -34 28 -29 36 -42 19 -28
-16 14 -7 3 21 -25 28 -27 41 -43 30 -35 -12 8 0 -5 25 -30 25 -25 37 -38 25
-30 -12 8 0 -5 25 -30 25 -25 36 -38 25 -30 -12 8 2 -7 30 -35 28 -27 39 -41
26 -30 -24 19 -24 19 -11 1 8 -11 29 -28 45 -38 l30 -18 45 48 c25 26 38 39
30 27 -8 -12 5 0 30 25 25 25 38 37 30 25 -8 -12 5 0 30 25 25 25 38 37 30 25
-8 -12 5 0 30 25 25 25 38 37 30 25 -8 -12 5 0 30 25 25 25 38 36 30 25 -8
-12 4 -1 28 24 23 25 49 45 57 43 7 -1 17 3 21 9 5 8 3 9 -6 4 -8 -5 -11 -4
-6 3 4 6 13 9 21 6 8 -4 18 1 21 10 3 9 10 13 15 10 5 -3 9 0 9 6 0 6 5 8 10
5 6 -3 10 -1 10 5 0 6 5 8 10 5 6 -3 10 -1 10 5 0 7 7 10 15 6 8 -3 15 -1 15
4 0 5 7 7 15 4 8 -4 15 -1 15 5 0 7 9 9 25 5 15 -4 25 -2 25 4 0 7 133 11 410
11 266 0 410 -4 410 -10 0 -6 9 -7 20 -4 12 4 20 2 20 -5 0 -7 7 -10 15 -6 8
3 15 1 15 -5 0 -6 7 -9 15 -5 8 3 15 1 15 -4 0 -5 10 -14 21 -21 17 -9 20 -8
14 3 -5 7 9 -6 31 -30 21 -24 59 -62 85 -85 25 -23 36 -35 24 -27 -11 8 0 -5
25 -30 25 -25 37 -38 25 -30 -12 8 0 -5 25 -30 25 -25 37 -38 25 -30 -12 8 0
-5 25 -30 25 -25 36 -38 25 -30 -12 8 -3 -3 20 -25 22 -22 34 -35 25 -30 -9 6
5 -10 30 -35 25 -25 37 -38 25 -30 -12 8 0 -5 25 -30 25 -25 37 -38 25 -30
-12 8 0 -5 25 -30 25 -25 37 -38 25 -30 -12 8 0 -5 25 -30 25 -25 37 -38 25
-30 -12 8 0 -5 25 -30 25 -25 37 -38 25 -30 -12 8 0 -5 25 -30 25 -25 36 -38
25 -30 -12 8 -3 -3 20 -25 22 -22 32 -34 20 -26 -11 8 -1 -4 23 -26 39 -38 56
-63 32 -48 -6 4 -5 -4 1 -19 7 -14 16 -23 22 -19 5 3 6 -3 2 -16 -3 -11 -2
-21 3 -21 6 0 8 -10 4 -22 -3 -12 -1 -19 4 -15 11 6 11 -154 0 -171 -4 -6 -4
-23 0 -38 5 -21 4 -25 -6 -19 -10 6 -12 1 -7 -23 4 -20 2 -32 -4 -32 -7 0 -8
-11 -4 -30 4 -20 3 -30 -5 -30 -8 0 -9 -10 -5 -31 5 -23 4 -30 -5 -24 -9 6
-10 -1 -5 -24 4 -21 3 -31 -5 -31 -8 0 -9 -10 -5 -30 4 -20 3 -30 -5 -30 -8 0
-9 -10 -5 -31 5 -23 4 -30 -5 -24 -9 6 -10 -1 -5 -24 4 -21 3 -31 -5 -31 -8 0
-9 -10 -5 -31 6 -24 4 -30 -5 -24 -10 6 -12 1 -7 -23 4 -20 2 -32 -4 -32 -7 0
-8 -11 -4 -30 4 -20 3 -30 -5 -30 -8 0 -10 -9 -6 -24 3 -14 2 -28 -4 -31 -6
-3 -7 -17 -4 -31 4 -15 2 -24 -6 -24 -8 0 -9 -10 -5 -30 4 -20 3 -30 -5 -30
-8 0 -10 -9 -6 -25 4 -15 2 -25 -5 -25 -7 0 -8 -11 -4 -30 4 -20 3 -30 -5 -30
-8 0 -9 -10 -5 -31 6 -24 4 -30 -5 -24 -10 6 -12 1 -7 -23 4 -20 2 -32 -4 -32
-7 0 -8 -11 -4 -30 4 -20 3 -30 -5 -30 -8 0 -9 -10 -5 -31 5 -23 4 -30 -5 -24
-9 6 -10 -1 -5 -24 4 -21 3 -31 -5 -31 -8 0 -9 -10 -5 -30 4 -20 3 -30 -5 -30
-8 0 -10 -9 -6 -25 4 -15 2 -25 -5 -25 -7 0 -8 -11 -4 -30 4 -20 3 -30 -5 -30
-8 0 -9 -10 -5 -31 5 -23 4 -30 -5 -24 -9 6 -10 -1 -5 -24 4 -21 3 -31 -5 -31
-8 0 -9 -10 -5 -30 4 -20 3 -30 -5 -30 -8 0 -9 -10 -5 -31 5 -23 4 -30 -5 -24
-9 6 -10 -1 -5 -24 4 -21 3 -31 -5 -31 -8 0 -9 -10 -5 -31 6 -24 4 -30 -5 -24
-10 6 -12 1 -7 -23 4 -20 2 -32 -4 -32 -7 0 -8 -11 -4 -30 4 -20 3 -30 -5 -30
-8 0 -9 -10 -5 -31 5 -23 4 -30 -5 -24 -9 6 -10 -1 -5 -24 4 -21 3 -31 -5 -31
-8 0 -9 -10 -5 -30 4 -20 3 -30 -5 -30 -8 0 -10 -9 -6 -25 4 -15 2 -25 -5 -25
-7 0 -8 -11 -4 -30 4 -20 3 -30 -5 -30 -8 0 -10 -9 -6 -24 3 -14 1 -28 -5 -31
-6 -4 -8 -18 -5 -31 4 -14 2 -24 -5 -24 -7 0 -8 -11 -4 -30 4 -20 3 -30 -5
-30 -8 0 -9 -10 -5 -31 5 -23 4 -30 -5 -24 -9 6 -10 -1 -5 -24 4 -21 3 -31 -5
-31 -8 0 -9 -10 -5 -31 6 -24 4 -30 -5 -24 -10 6 -12 1 -7 -23 4 -20 2 -32 -4
-32 -7 0 -8 -11 -4 -30 4 -20 3 -30 -5 -30 -8 0 -9 -10 -5 -31 5 -23 4 -30 -5
-24 -9 6 -10 -1 -5 -24 4 -21 3 -31 -5 -31 -8 0 -9 -10 -5 -30 4 -20 3 -30 -5
-30 -8 0 -10 -9 -6 -25 4 -15 2 -25 -5 -25 -7 0 -8 -11 -4 -30 4 -20 3 -30 -5
-30 -8 0 -9 -10 -5 -31 6 -24 4 -30 -5 -24 -10 6 -12 1 -7 -23 4 -20 2 -32 -4
-32 -7 0 -8 -11 -4 -30 4 -20 3 -30 -5 -30 -8 0 -9 -10 -5 -31 5 -23 4 -30 -5
-24 -9 6 -10 -1 -5 -24 4 -21 3 -31 -5 -31 -8 0 -9 -10 -5 -30 4 -20 3 -30 -5
-30 -8 0 -10 -9 -6 -25 4 -15 2 -25 -5 -25 -7 0 -8 -11 -4 -30 4 -20 3 -30 -5
-30 -8 0 -9 -10 -5 -31 5 -23 4 -30 -5 -24 -9 6 -10 -1 -5 -24 4 -21 3 -31 -5
-31 -8 0 -9 -10 -5 -30 4 -20 3 -30 -5 -30 -8 0 -9 -10 -5 -31 5 -23 4 -30 -5
-24 -9 6 -10 -1 -5 -24 4 -21 3 -31 -5 -31 -8 0 -9 -10 -5 -31 6 -24 4 -30 -5
-24 -10 6 -12 1 -7 -23 4 -20 2 -32 -4 -32 -7 0 -8 -11 -4 -30 4 -20 3 -30 -5
-30 -7 0 -10 -8 -7 -20 5 -20 0 -20 -559 -20 -369 0 -564 3 -564 10 0 6 5 10
11 10 7 0 8 11 4 30 -4 20 -3 30 5 30 8 0 9 10 5 31 -5 23 -4 30 5 24 9 -6 10
1 5 24 -4 21 -3 31 5 31 8 0 9 10 5 30 -4 20 -3 30 5 30 8 0 9 10 5 31 -5 23
-4 30 5 24 9 -6 10 1 5 24 -4 21 -3 31 5 31 8 0 9 10 5 31 -6 24 -4 30 5 24
10 -6 12 -1 7 23 -4 20 -2 32 4 32 7 0 8 11 4 30 -4 20 -3 30 5 30 8 0 9 10 5
31 -5 23 -4 30 5 24 9 -6 10 1 5 24 -4 21 -3 31 5 31 8 0 9 10 5 30 -4 20 -3
30 5 30 8 0 10 9 6 25 -4 15 -2 25 5 25 7 0 8 11 4 30 -4 20 -3 30 5 30 8 0 9
10 5 31 -6 24 -4 30 5 24 10 -6 12 -1 7 23 -4 20 -2 32 4 32 7 0 8 11 4 30 -4
20 -3 30 5 30 8 0 9 10 5 31 -5 23 -4 30 5 24 9 -6 10 1 5 24 -4 21 -3 31 5
31 8 0 9 10 5 30 -4 20 -3 30 5 30 8 0 10 9 6 25 -4 15 -2 25 5 25 7 0 8 11 4
30 -4 20 -3 30 5 30 8 0 9 10 5 31 -6 24 -4 30 5 24 10 -6 12 -1 7 23 -4 20
-2 32 4 32 7 0 8 11 4 30 -4 20 -3 30 5 30 8 0 9 10 5 31 -5 23 -4 30 5 24 9
-6 10 1 5 24 -4 21 -3 31 5 31 8 0 9 10 5 30 -4 20 -3 30 5 30 8 0 10 9 6 25
-4 15 -2 25 5 25 7 0 8 11 4 30 -4 20 -3 30 5 30 8 0 9 10 5 31 -6 24 -4 30 5
24 10 -6 12 -1 7 23 -4 20 -2 32 4 32 7 0 8 11 4 30 -4 20 -3 30 5 30 8 0 9
10 5 31 -5 23 -4 30 5 24 9 -6 10 1 5 24 -4 21 -3 31 5 31 8 0 9 10 5 30 -4
20 -3 30 5 30 8 0 10 9 6 25 -4 15 -2 25 5 25 7 0 8 11 4 30 -4 20 -3 30 5 30
8 0 9 10 5 31 -5 23 -4 30 5 24 9 -6 10 1 5 24 -4 21 -3 31 5 31 8 0 9 10 5
30 -4 20 -3 30 5 30 8 0 9 10 5 31 -5 23 -4 30 5 24 9 -6 10 1 5 24 -4 21 -3
31 5 31 8 0 10 9 6 24 -3 14 -1 28 5 31 6 4 8 18 5 31 -4 14 -2 24 5 24 7 0 8
11 4 30 -4 20 -3 30 5 30 8 0 9 10 5 31 -5 23 -4 30 5 24 9 -6 10 1 5 24 -4
21 -3 31 5 31 8 0 9 10 5 30 -4 20 -3 30 5 30 8 0 9 10 5 31 -5 23 -4 30 5 24
9 -6 10 1 5 24 -4 21 -3 31 5 31 8 0 9 10 5 31 -6 24 -4 30 5 24 10 -6 12 -1
7 23 -4 20 -2 32 4 32 7 0 8 11 4 30 -4 20 -3 30 5 30 8 0 9 10 5 31 -5 23 -4
30 5 24 9 -6 10 1 5 24 -4 21 -3 31 5 31 8 0 9 10 5 30 -4 20 -3 30 5 30 8 0
10 9 6 25 -4 15 -2 25 5 25 7 0 8 11 4 30 -4 20 -3 30 5 30 8 0 9 10 5 31 -6
24 -4 30 5 24 10 -6 12 -1 7 23 -4 20 -2 32 4 32 7 0 8 11 4 30 -4 20 -3 30 5
30 8 0 9 10 5 31 -5 23 -4 30 5 24 9 -6 10 1 5 24 -4 21 -3 31 5 31 8 0 9 10
5 30 -4 20 -3 30 5 30 8 0 10 9 6 25 -4 15 -2 25 5 25 7 0 8 11 4 30 -4 19 -3
30 4 30 6 0 11 9 11 20 0 11 -5 20 -11 20 -5 0 -7 4 -4 10 3 6 -1 7 -9 4 -9
-3 -16 -1 -16 5 0 16 -742 15 -758 -1 -7 -7 -12 -9 -12 -5 0 4 -6 2 -14 -5 -7
-7 -11 -19 -9 -25 3 -7 0 -13 -7 -13 -8 0 -9 -10 -5 -30 4 -20 3 -30 -5 -30
-8 0 -10 -9 -6 -24 3 -14 1 -28 -5 -31 -6 -4 -8 -18 -5 -31 4 -14 2 -24 -5
-24 -7 0 -8 -11 -4 -30 4 -20 3 -30 -5 -30 -8 0 -9 -10 -5 -31 5 -23 4 -30 -5
-24 -9 6 -10 -1 -5 -24 4 -21 3 -31 -5 -31 -8 0 -9 -10 -5 -30 4 -20 3 -30 -5
-30 -8 0 -10 -9 -6 -25 4 -15 2 -25 -5 -25 -7 0 -8 -11 -4 -30 4 -20 3 -30 -5
-30 -8 0 -9 -10 -5 -31 6 -24 4 -30 -5 -24 -10 6 -12 1 -7 -23 4 -20 2 -32 -4
-32 -7 0 -8 -11 -4 -30 4 -20 3 -30 -5 -30 -8 0 -10 -9 -6 -24 3 -14 2 -28 -4
-31 -6 -3 -7 -17 -4 -31 4 -15 2 -24 -6 -24 -8 0 -9 -10 -5 -31 6 -24 4 -30
-5 -24 -10 6 -12 1 -7 -23 4 -20 2 -32 -4 -32 -7 0 -8 -11 -4 -30 4 -20 3 -30
-5 -30 -8 0 -9 -10 -5 -31 5 -23 4 -30 -5 -24 -9 6 -10 -1 -5 -24 4 -21 3 -31
-5 -31 -8 0 -9 -10 -5 -30 4 -20 3 -30 -5 -30 -8 0 -9 -10 -5 -31 5 -23 4 -30
-5 -24 -9 6 -10 -1 -5 -24 4 -21 3 -31 -5 -31 -8 0 -10 -9 -6 -24 3 -14 1 -28
-5 -31 -6 -4 -8 -18 -5 -31 4 -14 2 -24 -5 -24 -7 0 -8 -11 -4 -30 4 -20 3
-30 -5 -30 -8 0 -9 -10 -5 -31 5 -23 4 -30 -5 -24 -9 6 -10 -1 -5 -24 4 -21 3
-31 -5 -31 -8 0 -9 -10 -5 -30 4 -20 3 -30 -5 -30 -8 0 -9 -10 -5 -31 5 -23 4
-30 -5 -24 -9 6 -10 -1 -5 -24 4 -21 3 -31 -5 -31 -8 0 -9 -10 -5 -31 6 -24 4
-30 -5 -24 -10 6 -12 1 -7 -23 4 -20 2 -32 -4 -32 -7 0 -8 -11 -4 -30 4 -20 3
-30 -5 -30 -8 0 -10 -9 -6 -24 3 -14 2 -28 -4 -31 -6 -3 -7 -17 -4 -31 4 -15
2 -24 -6 -24 -8 0 -9 -10 -5 -30 4 -20 3 -30 -5 -30 -8 0 -10 -9 -6 -25 4 -15
2 -25 -5 -25 -7 0 -8 -11 -4 -30 4 -20 3 -30 -5 -30 -8 0 -9 -10 -5 -31 6 -24
4 -30 -5 -24 -10 6 -12 1 -7 -23 4 -20 2 -32 -4 -32 -7 0 -8 -11 -4 -30 4 -20
3 -30 -5 -30 -8 0 -9 -10 -5 -31 5 -23 4 -30 -5 -24 -9 6 -10 -1 -5 -24 4 -21
3 -31 -5 -31 -8 0 -9 -10 -5 -30 4 -20 3 -30 -5 -30 -8 0 -10 -9 -6 -25 4 -15
2 -25 -5 -25 -7 0 -8 -11 -4 -30 4 -20 3 -30 -5 -30 -8 0 -9 -10 -5 -31 6 -24
4 -30 -5 -24 -10 6 -12 1 -7 -23 4 -20 2 -32 -4 -32 -7 0 -8 -11 -4 -30 4 -20
3 -30 -5 -30 -8 0 -9 -10 -5 -31 5 -23 4 -30 -5 -24 -9 6 -10 -1 -5 -24 4 -21
3 -31 -5 -31 -8 0 -9 -10 -5 -30 4 -20 3 -30 -5 -30 -8 0 -10 -9 -6 -25 4 -15
2 -25 -5 -25 -7 0 -8 -11 -4 -30 4 -20 3 -30 -5 -30 -8 0 -9 -10 -5 -31 5 -23
4 -30 -5 -24 -9 6 -10 -1 -5 -24 4 -21 3 -31 -5 -31 -8 0 -9 -10 -5 -30 4 -20
3 -30 -5 -30 -8 0 -9 -10 -5 -31 5 -23 4 -30 -5 -24 -9 6 -10 -1 -5 -24 4 -21
3 -31 -5 -31 -8 0 -9 -10 -5 -31 6 -24 4 -30 -5 -24 -10 6 -12 1 -7 -23 4 -20
2 -32 -4 -32 -7 0 -8 -11 -4 -30 4 -20 3 -30 -5 -30 -8 0 -9 -10 -5 -31 5 -23
4 -30 -5 -24 -9 6 -10 -1 -5 -24 4 -21 3 -31 -5 -31 -8 0 -9 -10 -5 -30 4 -20
3 -30 -5 -30 -8 0 -9 -10 -5 -31 5 -23 4 -30 -5 -24 -9 6 -10 -1 -5 -24 4 -20
3 -31 -4 -31 -6 0 -11 -7 -11 -15 0 -13 -69 -15 -562 -15 -310 0 -557 4 -550
9 9 5 11 17 6 34 -4 18 -2 27 6 27 8 0 9 10 5 31 -5 23 -4 30 5 24 9 -6 10 1
5 24 -4 21 -3 31 5 31 8 0 9 10 5 30 -4 20 -3 30 5 30 8 0 10 9 6 25 -4 15 -2
25 5 25 7 0 8 11 4 30 -4 20 -3 30 5 30 8 0 9 10 5 31 -5 23 -4 30 5 24 9 -6
10 1 5 24 -4 21 -3 31 5 31 8 0 9 10 5 30 -4 20 -3 30 5 30 8 0 9 10 5 31 -5
23 -4 30 5 24 9 -6 10 1 5 24 -4 21 -3 31 5 31 8 0 9 10 5 31 -6 24 -4 30 5
24 10 -6 12 -1 7 23 -4 20 -2 32 4 32 7 0 8 11 4 30 -4 20 -3 30 5 30 8 0 9
10 5 31 -5 23 -4 30 5 24 9 -6 10 1 5 24 -4 21 -3 31 5 31 8 0 9 10 5 30 -4
20 -3 30 5 30 8 0 9 10 5 31 -5 23 -4 30 5 24 9 -6 10 1 5 24 -4 21 -3 31 5
31 8 0 9 10 5 31 -6 24 -4 30 5 24 10 -6 12 -1 7 23 -4 20 -2 32 4 32 7 0 8
11 4 30 -4 20 -3 30 5 30 8 0 9 10 5 31 -5 23 -4 30 5 24 9 -6 10 1 5 24 -4
21 -3 31 5 31 8 0 9 10 5 30 -4 20 -3 30 5 30 8 0 10 9 6 25 -4 15 -2 25 5 25
7 0 8 11 4 30 -4 20 -3 30 5 30 8 0 9 10 5 31 -6 24 -4 30 5 24 10 -6 12 -1 7
23 -4 20 -2 32 4 32 7 0 8 11 4 30 -4 20 -3 30 5 30 8 0 10 9 6 24 -3 14 -2
28 4 31 6 3 7 17 4 31 -4 15 -2 24 6 24 8 0 9 10 5 30 -4 20 -3 30 5 30 8 0
10 9 6 25 -4 15 -2 25 5 25 7 0 8 11 4 30 -4 20 -3 30 5 30 8 0 9 10 5 31 -6
24 -4 30 5 24 10 -6 12 -1 7 23 -4 20 -2 32 4 32 7 0 8 11 4 30 -4 20 -3 30 5
30 8 0 9 10 5 31 -5 23 -4 30 5 24 9 -6 10 1 5 24 -4 21 -3 31 5 31 8 0 9 10
5 30 -4 20 -3 30 5 30 8 0 10 9 6 25 -4 15 -2 25 5 25 7 0 8 11 4 30 -4 20 -3
30 5 30 8 0 10 9 6 24 -3 14 -2 28 4 31 6 3 7 17 4 31 -4 15 -2 24 6 24 8 0 9
10 5 30 -4 20 -3 30 5 30 8 0 9 10 5 31 -5 23 -4 30 5 24 9 -6 10 1 5 24 -4
21 -3 31 5 31 8 0 9 10 5 31 -6 24 -4 30 5 24 10 -6 12 -1 7 23 -4 20 -2 32 4
32 7 0 8 11 4 30 -4 20 -3 30 5 30 8 0 9 10 5 31 -5 23 -4 30 5 24 9 -6 10 1
5 24 -4 21 -3 31 5 31 8 0 9 10 5 30 -4 20 -3 30 5 30 8 0 10 9 6 24 -3 14 -2
28 4 31 6 3 7 17 4 31 -4 15 -2 24 6 24 8 0 9 10 5 31 -6 24 -4 30 5 24 10 -6
12 -1 7 23 -4 20 -2 32 4 32 7 0 8 11 4 30 -4 20 -3 30 5 30 8 0 10 9 6 24 -3
14 -2 28 4 31 6 3 7 17 4 31 -4 15 -2 24 6 24 8 0 9 10 5 30 -4 20 -3 30 5 30
8 0 10 9 6 25 -4 15 -2 25 5 25 7 0 8 11 4 30 -4 20 -3 30 5 30 8 0 9 10 5 31
-6 24 -4 30 5 24 10 -6 12 -1 7 23 -4 20 -2 32 4 32 7 0 8 11 4 30 -4 19 -3
30 4 30 6 0 9 14 8 33 -2 24 -7 31 -20 29 -9 -2 -17 2 -17 8 0 7 -121 10 -375
10 -267 0 -375 -3 -375 -11 0 -6 -6 -9 -14 -6 -21 8 -36 -15 -29 -43 5 -17 3
-21 -6 -15 -10 6 -12 0 -6 -24 4 -21 3 -31 -5 -31 -8 0 -9 -10 -5 -30 4 -20 3
-30 -5 -30 -8 0 -10 -9 -6 -25 4 -15 2 -25 -5 -25 -7 0 -8 -11 -4 -30 4 -20 3
-30 -5 -30 -8 0 -9 -10 -5 -31 5 -23 4 -30 -5 -24 -9 6 -10 -1 -5 -24 4 -21 3
-31 -5 -31 -8 0 -9 -10 -5 -30 4 -20 3 -30 -5 -30 -8 0 -10 -9 -6 -25 4 -15 2
-25 -5 -25 -7 0 -8 -11 -4 -30 4 -20 3 -30 -5 -30 -8 0 -9 -10 -5 -31 6 -24 4
-30 -5 -24 -10 6 -12 1 -7 -23 4 -20 2 -32 -4 -32 -7 0 -8 -11 -4 -30 4 -20 3
-30 -5 -30 -8 0 -10 -9 -6 -24 3 -14 2 -28 -4 -31 -6 -3 -7 -17 -4 -31 4 -15
2 -24 -6 -24 -8 0 -9 -10 -5 -30 4 -20 3 -30 -5 -30 -8 0 -9 -10 -5 -31 5 -23
4 -30 -5 -24 -9 6 -10 -1 -5 -24 4 -21 3 -31 -5 -31 -8 0 -9 -10 -5 -31 6 -24
4 -30 -5 -24 -10 6 -12 1 -7 -23 4 -20 2 -32 -4 -32 -7 0 -8 -11 -4 -30 4 -20
3 -30 -5 -30 -8 0 -9 -10 -5 -31 5 -23 4 -30 -5 -24 -9 6 -10 -1 -5 -24 4 -21
3 -31 -5 -31 -8 0 -9 -10 -5 -30 4 -20 3 -30 -5 -30 -8 0 -10 -9 -6 -25 4 -15
2 -25 -5 -25 -7 0 -8 -11 -4 -30 4 -20 3 -30 -5 -30 -8 0 -9 -10 -5 -31 6 -24
4 -30 -5 -24 -10 6 -12 1 -7 -23 4 -20 2 -32 -4 -32 -7 0 -8 -11 -4 -30 4 -20
3 -30 -5 -30 -8 0 -9 -10 -5 -31 5 -23 4 -30 -5 -24 -9 6 -10 -1 -5 -24 4 -21
3 -31 -5 -31 -8 0 -9 -10 -5 -30 4 -20 3 -30 -5 -30 -8 0 -10 -9 -6 -25 4 -15
2 -25 -5 -25 -7 0 -8 -11 -4 -30 4 -20 3 -30 -5 -30 -8 0 -10 -9 -6 -24 3 -14
2 -28 -4 -31 -6 -3 -7 -17 -4 -31 4 -15 2 -24 -6 -24 -8 0 -9 -10 -5 -30 4
-20 3 -30 -5 -30 -8 0 -9 -10 -5 -31 5 -23 4 -30 -5 -24 -9 6 -10 -1 -5 -24 4
-21 3 -31 -5 -31 -8 0 -9 -10 -5 -30 4 -20 3 -30 -5 -30 -8 0 -10 -9 -6 -25 4
-15 2 -25 -5 -25 -7 0 -8 -11 -4 -30 4 -20 3 -30 -5 -30 -8 0 -9 -10 -5 -31 6
-24 4 -30 -5 -24 -10 6 -12 1 -7 -23 4 -20 2 -32 -4 -32 -7 0 -8 -11 -4 -30 4
-20 3 -30 -5 -30 -8 0 -9 -10 -5 -31 5 -23 4 -30 -5 -24 -9 6 -10 -1 -5 -24 4
-21 3 -31 -5 -31 -8 0 -9 -10 -5 -31 6 -24 4 -30 -5 -24 -10 6 -12 1 -7 -23 4
-20 2 -32 -4 -32 -7 0 -8 -11 -4 -30 4 -20 3 -30 -5 -30 -8 0 -9 -10 -5 -31 5
-23 4 -30 -5 -24 -9 6 -10 -1 -5 -24 4 -21 3 -31 -5 -31 -8 0 -9 -10 -5 -30 4
-20 3 -30 -5 -30 -8 0 -9 -10 -5 -31 5 -23 4 -30 -5 -24 -9 6 -10 -1 -5 -24 4
-21 3 -31 -5 -31 -8 0 -9 -10 -5 -31 6 -24 4 -30 -5 -24 -10 6 -12 1 -7 -23 4
-20 2 -32 -4 -32 -7 0 -8 -11 -4 -30 4 -20 3 -30 -5 -30 -8 0 -9 -10 -5 -31 5
-23 4 -30 -5 -24 -9 6 -10 -1 -5 -24 4 -21 3 -31 -5 -31 -8 0 -9 -10 -5 -30 4
-20 3 -30 -5 -30 -8 0 -9 -10 -5 -31 5 -23 4 -30 -5 -24 -9 6 -10 -1 -5 -24 4
-21 3 -31 -5 -31 -8 0 -9 -10 -5 -31 6 -24 4 -30 -5 -24 -10 6 -12 1 -7 -23 4
-20 2 -32 -4 -32 -7 0 -8 -11 -4 -30 4 -20 3 -30 -5 -30 -8 0 -9 -10 -5 -31 5
-24 4 -30 -5 -24 -10 6 -11 1 -6 -19 14 -57 28 -56 -567 -56 l-545 0 -6 27
c-5 16 -3 29 4 33 7 4 9 16 5 29 -4 13 -2 21 5 21 8 0 9 10 5 30 -4 20 -3 30
5 30 8 0 9 10 5 31 -6 24 -4 30 5 24 10 -6 12 -1 7 23 -4 20 -2 32 4 32 7 0 8
11 4 30 -4 20 -3 30 5 30 8 0 9 10 5 31 -5 23 -4 30 5 24 9 -6 10 1 5 24 -4
21 -3 31 5 31 8 0 9 10 5 31 -6 24 -4 30 5 24 10 -6 12 -1 7 23 -4 20 -2 32 4
32 7 0 8 11 4 30 -4 20 -3 30 5 30 8 0 9 10 5 31 -5 23 -4 30 5 24 9 -6 10 1
5 24 -4 21 -3 31 5 31 8 0 9 10 5 30 -4 20 -3 30 5 30 8 0 10 9 6 25 -4 15 -2
25 5 25 7 0 8 11 4 30 -4 20 -3 30 5 30 8 0 9 10 5 31 -6 24 -4 30 5 24 10 -6
12 -1 7 23 -4 20 -2 32 4 32 7 0 8 11 4 30 -4 20 -3 30 5 30 8 0 9 10 5 31 -5
23 -4 30 5 24 9 -6 10 1 5 24 -4 21 -3 31 5 31 8 0 9 10 5 30 -4 20 -3 30 5
30 8 0 10 9 6 25 -4 15 -2 25 5 25 7 0 8 11 4 30 -4 20 -3 30 5 30 8 0 9 10 5
31 -5 23 -4 30 5 24 9 -6 10 1 5 24 -4 21 -3 31 5 31 8 0 9 10 5 30 -4 20 -3
30 5 30 8 0 10 9 6 25 -4 15 -2 25 5 25 7 0 8 11 4 30 -4 20 -3 30 5 30 8 0 9
10 5 31 -6 24 -4 30 5 24 10 -6 12 -1 7 23 -4 20 -2 32 4 32 7 0 8 11 4 30 -4
20 -3 30 5 30 8 0 9 10 5 31 -5 23 -4 30 5 24 9 -6 10 1 5 24 -4 21 -3 31 5
31 8 0 9 10 5 30 -4 20 -3 30 5 30 8 0 10 9 6 25 -4 15 -2 25 5 25 7 0 8 11 4
30 -4 20 -3 30 5 30 8 0 9 10 5 31 -6 24 -4 30 5 24 10 -6 12 -1 7 23 -4 20
-2 32 4 32 7 0 8 11 4 30 -4 20 -3 30 5 30 8 0 9 10 5 31 -5 23 -4 30 5 24 9
-6 10 1 5 24 -4 21 -3 31 5 31 8 0 9 10 5 31 -6 24 -4 30 5 24 10 -6 12 -1 7
23 -4 20 -2 32 4 32 7 0 8 11 4 30 -4 20 -3 30 5 30 8 0 9 10 5 31 -5 23 -4
30 5 24 9 -6 10 1 5 24 -4 21 -3 31 5 31 8 0 9 10 5 30 -4 20 -3 30 5 30 8 0
9 10 5 31 -5 23 -4 30 5 24 9 -6 10 1 5 24 -4 21 -3 31 5 31 8 0 9 10 5 31 -6
24 -4 30 5 24 10 -6 12 -1 7 23 -4 20 -2 32 4 32 7 0 8 11 4 30 -4 20 -3 30 5
30 8 0 10 9 6 24 -3 14 -2 28 4 31 6 3 7 17 4 31 -4 15 -2 24 6 24 8 0 9 10 5
30 -4 20 -3 30 5 30 8 0 10 9 6 25 -4 15 -2 25 5 25 7 0 8 11 4 30 -4 20 -3
30 5 30 8 0 9 10 5 31 -5 23 -4 30 5 24 9 -6 10 1 5 24 -4 21 -3 31 5 31 8 0
9 10 5 30 -4 20 -3 30 5 30 8 0 9 10 5 31 -5 23 -4 30 5 24 9 -6 10 1 5 24 -4
21 -3 31 5 31 8 0 9 10 5 31 -6 24 -4 30 5 24 10 -6 12 -1 7 23 -4 19 -2 32 4
32 6 0 7 14 3 36 -5 29 -4 35 6 29 10 -6 11 -2 6 19 -4 16 -2 26 4 26 7 0 9 8
5 20 -4 12 -2 20 5 20 7 0 9 8 5 20 -4 12 -2 20 5 20 6 0 9 4 6 9 -8 12 4 42
13 36 4 -2 15 12 25 31 11 24 12 33 4 29 -7 -4 -2 3 12 15 14 12 18 19 10 15
-8 -4 -1 5 17 19 18 15 63 59 100 99 37 40 61 63 53 52 -8 -12 5 0 30 25 25
25 38 36 30 25 -8 -12 4 -1 26 24 23 24 50 46 60 47 11 2 42 27 69 56 28 30
43 44 35 33 -8 -12 4 -1 26 24 23 24 50 46 60 47 11 2 42 27 69 56 28 30 43
44 35 33 -8 -12 5 0 30 25 25 25 38 37 30 25 -8 -12 5 0 30 25 25 25 38 36 30
25 -8 -12 8 2 35 30 28 28 43 41 35 30 -8 -12 5 0 30 25 25 25 38 36 30 25 -8
-12 4 -1 26 24 23 24 50 46 60 47 10 2 37 23 60 48 41 45 62 59 49 34 -4 -7 0
-5 8 4 8 10 17 15 20 11 4 -3 7 -1 7 6 0 7 5 9 10 6 6 -3 10 -1 10 5 0 6 5 8
10 5 6 -3 10 -1 10 5 0 7 7 10 15 6 8 -3 15 -1 15 5 0 6 9 8 20 4 12 -4 20 -2
20 5 0 7 8 9 19 5 11 -3 22 -1 25 4 9 14 816 13 816 -1z m2200 -145 c0 -8 -9
0 -50 45 l-45 47 48 -45 c26 -24 47 -45 47 -47z m-3270 33 c0 -2 -8 -10 -17
-17 -16 -13 -17 -12 -4 4 13 16 21 21 21 13z m1600 -290 c0 -2 -8 -10 -17 -17
-16 -13 -17 -12 -4 4 13 16 21 21 21 13z m-2020 -59 c0 -2 -12 -14 -27 -28
l-28 -24 24 28 c23 25 31 32 31 24z m-190 -160 c0 -2 -12 -14 -27 -28 l-28
-24 24 28 c23 25 31 32 31 24z m-260 -220 c0 -1 -24 -25 -52 -52 l-53 -50 50
53 c46 48 55 57 55 49z"/>
<path d="M3749 5113 c-13 -16 -12 -17 4 -4 9 7 17 15 17 17 0 8 -8 3 -21 -13z"/>
<path d="M1724 5048 l-19 -23 23 19 c21 18 27 26 19 26 -2 0 -12 -10 -23 -22z"/>
<path d="M1284 4678 l-19 -23 23 19 c21 18 27 26 19 26 -2 0 -12 -10 -23 -22z"/>
<path d="M1094 4518 l-19 -23 23 19 c21 18 27 26 19 26 -2 0 -12 -10 -23 -22z"/>
</g>
</svg>
